<svg class="logo_logo__nkye6 header_logo__3FkDP" xmlns="http://www.w3.org/2000/svg" xml:space="preserve" width="419px" height="500px" version="1.1" viewBox="0 0 17.944 21.415"><g><metadata></metadata><g><path style="fill:transparent" d="M11.821 10.924l-2.624 0 0 -2.099 5.117 0c0.021,0.114 0.036,0.269 0.047,0.466 0.01,0.197 0.018,0.386 0.023,0.568 0.005,0.181 0.008,0.324 0.008,0.427 0,0.705 -0.127,1.351 -0.381,1.937 -0.254,0.586 -0.612,1.091 -1.073,1.516 -0.462,0.425 -1.003,0.754 -1.626,0.988 -0.622,0.233 -1.296,0.35 -2.021,0.35 -0.871,0 -1.657,-0.14 -2.357,-0.42 -0.7,-0.28 -1.303,-0.674 -1.812,-1.182 -0.508,-0.508 -0.896,-1.104 -1.166,-1.789 -0.27,-0.684 -0.404,-1.431 -0.404,-2.239 0,-0.809 0.145,-1.556 0.435,-2.24 0.29,-0.684 0.697,-1.281 1.221,-1.789 0.524,-0.508 1.146,-0.902 1.866,-1.182 0.721,-0.28 1.511,-0.42 2.372,-0.42 0.591,0 1.154,0.078 1.688,0.234 0.534,0.155 1.021,0.368 1.462,0.637 0.44,0.27 0.806,0.576 1.096,0.918l-1.633 1.711c-0.373,-0.353 -0.775,-0.63 -1.205,-0.832 -0.431,-0.202 -0.915,-0.304 -1.454,-0.304 -0.446,0 -0.858,0.081 -1.237,0.242 -0.378,0.16 -0.71,0.388 -0.995,0.684 -0.286,0.295 -0.506,0.643 -0.661,1.042 -0.156,0.399 -0.234,0.832 -0.234,1.299 0,0.466 0.083,0.896 0.249,1.29 0.166,0.394 0.397,0.739 0.692,1.035 0.296,0.295 0.641,0.526 1.035,0.692 0.394,0.166 0.819,0.249 1.275,0.249 0.321,0 0.619,-0.05 0.894,-0.148 0.275,-0.099 0.519,-0.233 0.731,-0.404 0.213,-0.172 0.379,-0.374 0.498,-0.607 0.101,-0.197 0.159,-0.407 0.174,-0.63z"></path><path d="M1.761 0.001c-0.442,0.009 -0.877,0.19 -1.197,0.498 -0.332,0.316 -0.537,0.763 -0.561,1.224 -0.006,0.201 -0.001,0.403 -0.003,0.605 0.001,5.745 0,11.49 0.001,17.234 0.006,0.444 0.163,0.881 0.425,1.235 0.203,0.272 0.482,0.5 0.813,0.584 0.21,0.055 0.435,0.041 0.639,-0.03 4.775,-1.461 9.549,-2.922 14.323,-4.383 0.402,-0.128 0.8,-0.297 1.131,-0.565 0.254,-0.205 0.459,-0.48 0.549,-0.798 0.054,-0.179 0.066,-0.368 0.062,-0.555 -0.001,-4.417 0,-8.834 -0.001,-13.251 -0.004,-0.453 -0.183,-0.901 -0.492,-1.228 -0.312,-0.337 -0.755,-0.544 -1.21,-0.568 -0.2,-0.006 -0.399,-0.001 -0.599,-0.003 -4.619,0.001 -9.239,0 -13.858,0.001 -0.007,0 -0.015,0 -0.022,0l0 0zm10.06 10.923l-2.624 0 0 -2.099 5.117 0c0.021,0.114 0.036,0.269 0.047,0.466 0.01,0.197 0.018,0.386 0.023,0.568 0.005,0.181 0.008,0.324 0.008,0.427 0,0.705 -0.127,1.351 -0.381,1.937 -0.254,0.586 -0.612,1.091 -1.073,1.516 -0.462,0.425 -1.003,0.754 -1.626,0.988 -0.622,0.233 -1.296,0.35 -2.021,0.35 -0.871,0 -1.657,-0.14 -2.357,-0.42 -0.7,-0.28 -1.303,-0.674 -1.812,-1.182 -0.508,-0.508 -0.896,-1.104 -1.166,-1.789 -0.27,-0.684 -0.404,-1.431 -0.404,-2.239 0,-0.809 0.145,-1.556 0.435,-2.24 0.29,-0.684 0.697,-1.281 1.221,-1.789 0.524,-0.508 1.146,-0.902 1.866,-1.182 0.721,-0.28 1.511,-0.42 2.372,-0.42 0.591,0 1.154,0.078 1.688,0.234 0.534,0.155 1.021,0.368 1.462,0.637 0.44,0.27 0.806,0.576 1.096,0.918l-1.633 1.711c-0.373,-0.353 -0.775,-0.63 -1.205,-0.832 -0.431,-0.202 -0.915,-0.304 -1.454,-0.304 -0.446,0 -0.858,0.081 -1.237,0.242 -0.378,0.16 -0.71,0.388 -0.995,0.684 -0.286,0.295 -0.506,0.643 -0.661,1.042 -0.156,0.399 -0.234,0.832 -0.234,1.299 0,0.466 0.083,0.896 0.249,1.29 0.166,0.394 0.397,0.739 0.692,1.035 0.296,0.295 0.641,0.526 1.035,0.692 0.394,0.166 0.819,0.249 1.275,0.249 0.321,0 0.619,-0.05 0.894,-0.148 0.275,-0.099 0.519,-0.233 0.731,-0.404 0.213,-0.172 0.379,-0.374 0.498,-0.607 0.101,-0.197 0.159,-0.407 0.174,-0.63l0 0z"></path></g></g></svg>